<!DOCTYPE svg PUBLIC "-//W3C//DTD SVG 1.1//EN" "http://www.w3.org/Graphics/SVG/1.1/DTD/svg11.dtd">
<!-- Uploaded to: SVG Repo, www.svgrepo.com, Transformed by: SVG Repo Mixer Tools -->
<svg fill="#fff" height="64px" width="64px" version="1.1" id="Layer_1" xmlns="http://www.w3.org/2000/svg" xmlns:xlink="http://www.w3.org/1999/xlink" viewBox="-200.11 -200.11 900.49 900.49" xml:space="preserve" stroke="#fff" transform="matrix(1, 0, 0, 1, 0, 0)">
<g id="SVGRepo_bgCarrier" stroke-width="0">
<rect x="-200.11" y="-200.11" width="900.49" height="900.49" rx="450.245" fill="#36b4e6" strokewidth="0"/>
</g>
<g id="SVGRepo_tracerCarrier" stroke-linecap="round" stroke-linejoin="round"/>
<g id="SVGRepo_iconCarrier"> <g> <g> <path d="M487.466,84.8c-33.067-13.867-67.2-20.267-105.6-20.267c-45.867,0-91.733,9.6-136.533,19.2 c-43.733,9.6-86.4,18.133-128,18.133c-32,0-61.867-5.333-88.533-17.067c-6.4-2.133-13.867-2.133-19.2,2.133 C3.2,90.133,0,96.533,0,104v292.267c0,8.533,5.333,16,12.8,19.2c33.067,13.867,67.2,20.267,105.6,20.267 c45.867,0,91.733-9.6,136.533-18.133c43.733-9.6,86.4-18.133,128-18.133c32,0,61.867,5.333,88.533,17.067 c6.4,2.133,13.867,2.133,19.2-2.133c6.4-3.2,9.6-9.6,9.6-17.067V103.999C500.266,95.466,494.933,88,487.466,84.8z M457.599,366.4 c-23.467-6.4-49.067-9.6-75.733-9.6c-45.867,0-91.733,9.6-136.533,19.2c-43.733,9.6-86.4,18.133-128,18.133 c-26.667,0-52.267-3.2-75.733-11.733V132.8c24.533,7.467,49.067,10.667,75.733,10.667c45.867,0,91.733-9.6,136.533-19.2 c43.733-9.6,86.4-18.133,128-18.133c26.667,0,52.267,3.2,75.733,11.733V366.4z"/> </g> </g> <g> <g> <path d="M290.133,254.4c-5.333-3.2-10.667-5.333-16-7.467c-6.4-2.133-11.733-3.2-18.133-5.333v-51.2 c10.667,0,21.333,2.133,29.867,5.333c3.2,1.067,5.333,2.133,7.467,2.133c2.133,0,3.2-1.067,5.333-3.2 c1.067-2.133,2.133-4.267,2.133-6.4c0-4.267-2.133-7.467-6.4-8.533c-10.667-4.267-23.467-6.4-38.4-7.467V155.2 c0-1.067,0-2.133-1.067-3.2c-1.067-1.067-2.133-1.067-3.2-1.067c-1.067,0-2.133,0-3.2,1.067c-1.067,1.067-1.067,2.133-1.067,3.2 v17.067c-16,1.067-28.8,5.333-37.333,13.867c-4.267,4.267-7.467,8.533-9.6,13.867c-2.133,5.333-3.2,10.667-3.2,17.067 c0,6.4,1.067,11.733,4.267,17.067c3.2,4.267,7.467,8.533,13.867,12.8c6.4,4.267,17.067,7.467,33.067,11.733v49.067 c-14.933,0-26.667-3.2-36.267-7.467c-3.2-1.067-5.333-2.133-7.467-2.133c-2.133,0-4.267,1.067-5.333,2.133 c-1.067,2.133-2.133,4.267-2.133,7.467c0,3.2,2.133,5.333,6.4,7.467c14.933,6.4,29.867,9.6,45.867,10.667v17.067 c0,3.2,1.067,4.267,4.267,4.267c1.067,0,2.133,0,3.2-1.067c1.067-1.067,1.067-2.133,1.067-3.2v-17.067 c14.933-1.067,27.733-5.333,37.333-12.8c9.6-7.467,13.867-17.067,13.867-28.8C306.133,271.466,300.799,261.867,290.133,254.4z M246.399,239.466c-4.267-1.067-8.533-2.133-11.733-3.2c-12.8-4.267-19.2-10.667-19.2-20.267c0-7.467,3.2-12.8,8.533-17.067 c6.4-4.267,13.867-6.4,22.4-7.467V239.466z M284.799,294.933c-4.267,8.533-13.867,12.8-28.8,13.867v-46.933 c10.667,3.2,18.133,5.333,22.4,7.467c3.2,2.133,5.333,3.2,6.4,6.4c2.133,2.133,2.133,5.333,2.133,8.533 C286.933,287.466,285.866,291.733,284.799,294.933z"/> </g> </g> </g>
</svg>